# xmcd
#
# Track frame offsets:
#	150
#	20151
#	42064
#	57348
#	74166
#	94839
#	109303
#	128786
#	147188
#	167488
#	186813
#
# Disc length: 2707 seconds
#
# Revision: 9
# Processed by: cddbd v1.5.2PL0 Copyright (c) Steve Scherf et al.
# Submitted via: Jack! The Knife
#
DISCID=a00a910b
DTITLE=Luca Carboni - LU*CA
DYEAR=2001
DGENRE=Pop
TTITLE0=Mi ami davvero
TTITLE1=La nostra storia
TTITLE2=Chiudi gli occhi
TTITLE3=Una rosa per te
TTITLE4=Le parole
TTITLE5=Autoritratto
TTITLE6=L'amore non lo sa
TTITLE7=Quante cose
TTITLE8=Voglia di piangere
TTITLE9=I problemi della gente
TTITLE10=Stellina (dei cantautori)
EXTD=Bruno Mariani
EXTT0=
EXTT1=
EXTT2=
EXTT3=
EXTT4=
EXTT5=
EXTT6=
EXTT7=
EXTT8=
EXTT9=
EXTT10=
PLAYORDER=
